<svg width="104" height="56" viewBox="0 0 104 56" fill="none" xmlns="http://www.w3.org/2000/svg">
<path d="M4.35056 45.8267C4.35056 45.8795 4.36089 45.9216 4.38156 45.9532C4.40223 45.9796 4.44356 45.9954 4.49523 45.9954H10.8454C11.3672 45.9954 11.6256 46.259 11.6256 46.7861C11.6256 47.3132 11.3672 47.5767 10.8454 47.5767H3.60135C3.40501 47.5767 3.19316 47.5398 2.96582 47.4713C2.73847 47.3975 2.55246 47.3026 2.41296 47.1814C2.32512 47.1023 2.22178 46.9706 2.09777 46.7755C1.97377 46.5805 1.91176 46.3802 1.91176 46.1694V43.1965C1.91176 42.7748 1.69475 42.4901 1.26073 42.332C0.826709 42.1791 0.609698 41.9894 0.609698 41.768C0.609698 41.6468 0.645866 41.573 0.718203 41.5519C0.790541 41.5308 0.868045 41.5203 0.955882 41.5203H4.19555C4.24722 41.5203 4.28855 41.5361 4.31955 41.5624C4.34539 41.5888 4.36089 41.631 4.36089 41.6889V45.8426L4.35056 45.8267ZM5.34261 52.3734V50.713C5.34261 50.2703 5.1566 49.9804 4.78975 49.8486C4.42289 49.7168 4.23688 49.5429 4.23688 49.332C4.23688 49.2108 4.27305 49.1317 4.35056 49.1001C4.42806 49.0685 4.5004 49.0474 4.5779 49.0474H7.64189C7.69873 49.0474 7.7349 49.0632 7.7659 49.0895C7.79173 49.1159 7.80723 49.1581 7.80723 49.2161V52.3734H12.3335C12.8347 52.3734 13.0827 52.6264 13.0827 53.1272C13.0827 53.6279 12.8347 53.881 12.3335 53.881H1.48291C1.20906 53.881 0.899046 53.7228 0.537361 53.4171C0.180843 53.1061 0 52.8689 0 52.7002C0 52.5685 0.0206677 52.4789 0.0568362 52.4367C0.0930048 52.3945 0.175676 52.3682 0.294515 52.3682H5.34261V52.3734Z" fill="#005BAC"/>
<path d="M15.8858 43.8028C16.1028 43.3284 16.4541 43.0859 16.945 43.0859C17.4358 43.0859 17.7717 43.3231 17.9887 43.8028C18.2057 44.2772 18.3142 44.7938 18.3142 45.3472C18.3142 45.9007 18.2057 46.4015 17.9887 46.8758C17.7717 47.3502 17.4255 47.5874 16.945 47.5874C16.4645 47.5874 16.1183 47.3502 15.8961 46.8758C15.6739 46.4015 15.5602 45.8902 15.5602 45.3472C15.5602 44.8043 15.6687 44.2772 15.8858 43.8028ZM24.2924 40.7456C24.2924 40.6929 24.2769 40.6507 24.251 40.6191C24.2252 40.5927 24.1838 40.5769 24.127 40.5769H21.3265C21.187 40.5769 21.0682 40.5927 20.97 40.6191C20.8718 40.6454 20.8253 40.7192 20.8253 40.8457C20.8253 41.1356 21.0424 41.3307 21.4764 41.4414C21.9104 41.5521 22.1274 41.8841 22.1274 42.4376V51.5935C22.1274 51.6356 22.1429 51.6778 22.1739 51.7094C22.2049 51.7411 22.2411 51.7621 22.2721 51.7621H23.0523C23.3571 51.7621 23.6362 51.6725 23.8997 51.4986C24.158 51.3194 24.2924 50.9451 24.2924 50.3706V40.7508V40.7456ZM18.7069 50.3126V53.6387C18.7069 53.7283 18.7276 53.7862 18.7637 53.8231C18.7999 53.8548 18.8619 53.8758 18.9497 53.8758H23.9823C24.437 53.8758 24.6644 54.1236 24.6644 54.6243C24.6644 55.1251 24.437 55.3728 23.9823 55.3728H18.1179C17.7045 55.3728 17.3273 55.2516 16.9863 55.0144C16.6453 54.7772 16.4748 54.4346 16.4748 53.9918V51.8149C16.4748 51.3615 16.2784 51.0822 15.8806 50.9768C15.4827 50.8713 15.2864 50.6868 15.2864 50.418C15.2864 50.2968 15.3174 50.223 15.3846 50.1914C15.4517 50.165 15.5396 50.1492 15.6636 50.1492H18.5622C18.6036 50.1492 18.6397 50.165 18.6656 50.1914C18.6914 50.2177 18.7069 50.2599 18.7069 50.3126ZM14.4028 42.7644C13.6846 43.4655 13.3281 44.3299 13.3281 45.3472C13.3281 46.3646 13.6846 47.229 14.4028 47.9301C15.1211 48.6311 15.9684 48.9843 16.945 48.9843C17.9215 48.9843 18.7534 48.6311 19.4716 47.9301C20.1898 47.2237 20.5463 46.3646 20.5463 45.3472C20.5463 44.3299 20.1898 43.4655 19.4716 42.7644C18.7534 42.0633 17.9112 41.7102 16.945 41.7102C15.9788 41.7102 15.1211 42.0633 14.4028 42.7644Z" fill="#005BAC"/>
<path d="M32.3402 51.0557C32.5934 50.6604 32.9396 50.4654 33.3736 50.4654C33.8076 50.4654 34.1486 50.6604 34.3967 51.0557C34.6447 51.4511 34.7738 51.936 34.7738 52.5105C34.7738 53.0851 34.6498 53.57 34.3967 53.9548C34.1486 54.3449 33.8076 54.5346 33.3736 54.5346C32.9396 54.5346 32.6089 54.3396 32.3454 53.9548C32.087 53.5648 31.9527 53.0851 31.9527 52.5105C31.9527 51.936 32.0819 51.4511 32.335 51.0557H32.3402ZM30.9038 50.0173C30.1339 50.6709 29.7464 51.5038 29.7464 52.5105C29.7464 53.5173 30.1339 54.3501 30.9038 55.0038C31.6737 55.6574 32.5056 55.9842 33.3943 55.9842C34.283 55.9842 35.0942 55.6574 35.8589 55.0038C36.6236 54.3501 37.006 53.5173 37.006 52.5105C37.006 51.5038 36.6236 50.6709 35.8589 50.0173C35.0942 49.3637 34.2726 49.0369 33.3943 49.0369C32.5159 49.0369 31.6737 49.3637 30.9038 50.0173ZM37.2695 40.7455V44.0663H38.6697C39.1606 44.0663 39.4034 44.314 39.4034 44.8148C39.4034 45.3155 39.1606 45.5633 38.6697 45.5633H37.2695V47.9036C37.2695 48.4782 37.1403 48.8155 36.8768 48.9157C36.6184 49.0158 36.3343 49.0633 36.0294 49.0633H35.2492C35.2182 49.0633 35.182 49.0474 35.151 49.0158C35.12 48.9842 35.1045 48.942 35.1045 48.8998V42.369C35.1045 41.8155 34.8875 41.494 34.4535 41.4044C34.0195 41.3148 33.8025 41.125 33.8025 40.8404C33.8025 40.7191 33.849 40.6453 33.9471 40.6137C34.0453 40.5873 34.1641 40.5715 34.3036 40.5715H37.1041C37.1558 40.5715 37.1971 40.5873 37.2281 40.6137C37.254 40.6401 37.2695 40.6822 37.2695 40.7402V40.7455ZM31.4877 46.7334C31.2913 46.5384 31.1002 46.3486 30.9193 46.1589C30.2218 46.823 29.5294 47.3923 28.8319 47.8614C28.1395 48.3306 27.4368 48.7048 26.7289 48.9842C26.3362 49.1265 26.1089 49.116 26.0469 48.9526C25.9797 48.7839 26.0572 48.6047 26.2742 48.4044C26.5998 48.1145 26.9718 47.7824 27.38 47.3976C27.7933 47.0181 28.2635 46.512 28.7957 45.8953C29.1781 45.4631 29.5346 44.9887 29.8704 44.4669C30.2063 43.945 30.4336 43.5286 30.5525 43.2229H28.3048C28.0207 43.2229 27.6848 43.0753 27.2973 42.7854C26.9046 42.4902 26.7134 42.253 26.7134 42.0633C26.7134 41.9631 26.7393 41.8893 26.7961 41.8366C26.8478 41.7892 26.9356 41.7628 27.0596 41.7628H32.9396C33.2083 41.7628 33.3891 41.8577 33.4769 42.0474C33.5648 42.2372 33.5699 42.4059 33.4924 42.564C33.3271 42.9541 33.0894 43.3968 32.7691 43.9029C32.4487 44.4089 32.0819 44.8991 31.6685 45.3735C31.9372 45.5158 32.1852 45.6318 32.4022 45.7214C32.6192 45.811 32.8414 45.8901 33.0688 45.9533C33.2444 46.0113 33.3788 46.0113 33.4821 45.9639C33.5854 45.9164 33.6836 45.9744 33.7818 46.1378C34.1073 46.6122 34.3347 47.0919 34.4587 47.5663C34.5827 48.0407 34.5258 48.3938 34.2881 48.6152C34.0401 48.8366 33.7198 48.7839 33.3271 48.4571C32.9344 48.1303 32.5159 47.7507 32.0715 47.3185C31.8752 47.1288 31.6788 46.939 31.4825 46.744L31.4877 46.7334Z" fill="#005BAC"/>
<path d="M44.76 43.7343H42.0732C41.7787 43.7343 41.4376 43.5709 41.045 43.2441C40.6523 42.9173 40.4611 42.6643 40.4611 42.4903C40.4611 42.3796 40.4921 42.3111 40.5593 42.2847C40.6213 42.2584 40.6936 42.2426 40.7711 42.2426H47.0076C47.3124 42.2426 47.5036 42.3533 47.5863 42.5694C47.669 42.7855 47.6845 42.97 47.6431 43.1281C47.3951 44.0716 47.0076 45.0046 46.4857 45.9271C45.9639 46.8548 45.4369 47.6823 44.9047 48.4097C44.2175 49.3427 43.4786 50.165 42.6829 50.8766C41.8872 51.5935 41.2206 52.11 40.6884 52.4316C40.2648 52.6846 39.9599 52.7689 39.7687 52.6793C39.5776 52.5897 39.6706 52.342 40.0374 51.9308C40.5799 51.3457 41.0811 50.7448 41.5462 50.1281C42.006 49.5114 42.4917 48.784 43.0032 47.9406C43.3287 47.3977 43.6749 46.723 44.0366 45.9218C44.3983 45.1206 44.6411 44.3879 44.76 43.7343ZM51.26 54.2027C51.26 54.8774 51.1308 55.3254 50.8776 55.5415C50.6245 55.7576 50.3351 55.8631 50.0251 55.8631H49.2604C49.219 55.8631 49.1777 55.8472 49.1467 55.8156C49.1157 55.784 49.095 55.7418 49.095 55.6996V42.5746C49.095 42.0106 48.878 41.6575 48.444 41.5099C48.01 41.3676 47.793 41.1567 47.793 40.8774C47.793 40.7561 47.8395 40.6771 47.9376 40.6349C48.0358 40.598 48.1547 40.5769 48.2942 40.5769H51.1101C51.1515 40.5769 51.1876 40.5927 51.2187 40.6191C51.2445 40.6454 51.26 40.6876 51.26 40.7456V54.2027Z" fill="#005BAC"/>
<path d="M58.0733 43.429C58.4092 42.8861 58.8897 42.612 59.5045 42.612C60.1194 42.612 60.6309 42.8808 60.9616 43.4185C61.2923 43.9561 61.4576 44.5412 61.4576 45.1737C61.4576 45.8063 61.2871 46.3914 60.9513 46.929C60.6154 47.4667 60.1297 47.7355 59.4994 47.7355C58.869 47.7355 58.404 47.4667 58.0681 46.929C57.7323 46.3914 57.5618 45.8063 57.5618 45.1737C57.5618 44.5412 57.7323 43.9719 58.0681 43.429H58.0733ZM56.5646 42.2061C55.6345 42.8966 55.1747 43.8876 55.1747 45.1737C55.1747 46.4599 55.6397 47.4614 56.5646 48.1466C57.4946 48.8319 58.4712 49.1798 59.5045 49.1798C60.5379 49.1798 61.5196 48.8372 62.4549 48.1466C63.3901 47.4614 63.8551 46.4704 63.8551 45.1737C63.8551 43.8771 63.3901 42.9019 62.4549 42.2061C61.5196 41.5156 60.5379 41.1677 59.5045 41.1677C58.4712 41.1677 57.4946 41.5156 56.5646 42.2061ZM62.5995 49.9072C62.5995 49.8492 62.5892 49.8123 62.5685 49.7807C62.5479 49.7543 62.5065 49.7385 62.4549 49.7385H59.6182C59.5407 49.7385 59.4684 49.7543 59.3909 49.7912C59.3134 49.8228 59.2772 49.9019 59.2772 50.0231C59.2772 50.234 59.4632 50.4027 59.8404 50.5397C60.2176 50.6715 60.4036 50.9614 60.4036 51.4042V52.3688H58.9517L59.0964 49.9072C59.0964 49.8492 59.0809 49.8123 59.055 49.7807C59.0292 49.7543 58.9879 49.7385 58.931 49.7385H56.115C56.0479 49.7385 55.9807 49.7543 55.9032 49.7912C55.8257 49.8228 55.7895 49.9019 55.7895 50.0231C55.7895 50.234 55.9755 50.4027 56.3424 50.5397C56.7092 50.6715 56.8952 50.9614 56.8952 51.4042V52.3688H53.2164C53.0976 52.3688 53.0149 52.3899 52.9787 52.4373C52.9425 52.4847 52.9219 52.5691 52.9219 52.7009C52.9219 52.8695 53.1027 53.1067 53.4592 53.4177C53.8158 53.7287 54.1309 53.8816 54.4048 53.8816H65.2553C65.7565 53.8816 66.0045 53.6286 66.0045 53.1278C66.0045 52.6271 65.7565 52.3741 65.2553 52.3741H62.4549L62.5995 49.9125V49.9072Z" fill="#005BAC"/>
<path d="M68.5108 43.6345C68.7278 43.1917 69.0739 42.9703 69.5545 42.9703C70.035 42.9703 70.3967 43.1917 70.6137 43.6345C70.8307 44.0772 70.9392 44.5569 70.9392 45.0788C70.9392 45.6006 70.8307 46.0644 70.6137 46.5072C70.3967 46.95 70.0453 47.1714 69.5545 47.1714C69.0636 47.1714 68.7433 46.95 68.5211 46.5072C68.2989 46.0644 68.1852 45.5848 68.1852 45.0788C68.1852 44.5727 68.2937 44.0772 68.5108 43.6345ZM67.0278 42.5908C66.3096 43.2655 65.9531 44.0983 65.9531 45.084C65.9531 46.0697 66.3096 46.9026 67.0278 47.5773C67.746 48.2519 68.5883 48.5893 69.5545 48.5893C70.5207 48.5893 71.3784 48.2519 72.0966 47.5773C72.8148 46.9026 73.1713 46.0697 73.1713 45.084C73.1713 44.0983 72.8148 43.2655 72.0966 42.5908C71.3784 41.9161 70.531 41.5788 69.5545 41.5788C68.5779 41.5788 67.746 41.9161 67.0278 42.5908ZM71.7298 50.9613C71.9881 50.5501 72.3291 50.3446 72.7631 50.3446C73.1972 50.3446 73.5537 50.5501 73.7965 50.9613C74.0394 51.3724 74.1634 51.8679 74.1634 52.4583C74.1634 53.0486 74.0394 53.5388 73.7965 53.9447C73.5537 54.3506 73.2075 54.5509 72.7631 54.5509C72.3188 54.5509 71.9984 54.3506 71.7349 53.9447C71.4766 53.5388 71.3422 53.0434 71.3422 52.4583C71.3422 51.8732 71.4714 51.3724 71.7246 50.9613H71.7298ZM70.2933 49.9229C69.5286 50.5923 69.1463 51.4357 69.1463 52.4583C69.1463 53.4809 69.5286 54.3242 70.2933 54.9937C71.0581 55.6631 71.8848 56.0004 72.7786 56.0004C73.6725 56.0004 74.4941 55.6631 75.2536 54.9937C76.0131 54.3242 76.3955 53.4809 76.3955 52.4583C76.3955 51.4357 76.0183 50.5923 75.2536 49.9229C74.4941 49.2535 73.6674 48.9161 72.7786 48.9161C71.8899 48.9161 71.0581 49.2482 70.2933 49.9229ZM76.752 40.7459V42.6751H78.1522C78.6431 42.6751 78.886 42.9229 78.886 43.4236C78.886 43.9244 78.6379 44.1721 78.1522 44.1721H76.752V45.5004H78.1522C78.6431 45.5004 78.886 45.7482 78.886 46.2489C78.886 46.7497 78.6379 46.9974 78.1522 46.9974H76.752V47.8461C76.752 48.4206 76.6228 48.758 76.3593 48.8581C76.101 48.9583 75.8168 49.0057 75.5119 49.0057H74.7317C74.7007 49.0057 74.6646 48.9899 74.6336 48.9583C74.6026 48.9266 74.5871 48.8845 74.5871 48.8423V42.38C74.5871 41.8265 74.3701 41.505 73.936 41.4154C73.502 41.3257 73.285 41.136 73.285 40.8513C73.285 40.7301 73.3367 40.6563 73.4297 40.6247C73.5278 40.5983 73.6467 40.5825 73.7862 40.5825H76.5867C76.6383 40.5825 76.6797 40.5983 76.7107 40.6247C76.7417 40.651 76.752 40.6932 76.752 40.7512V40.7459Z" fill="#005BAC"/>
<path d="M88.1197 47.1658H83.9655V45.1048H88.1197V47.1658ZM83.9603 41.6153C83.9603 41.5626 83.9448 41.5204 83.919 41.4888C83.8932 41.4625 83.8518 41.4466 83.795 41.4466H80.9945C80.9274 41.4466 80.8705 41.4625 80.8137 41.4941C80.762 41.5257 80.731 41.589 80.731 41.6786C80.731 41.8789 80.8964 42.0528 81.227 42.2004C81.5577 42.348 81.7231 42.601 81.7231 42.9542V49.1213C81.7231 49.1635 81.7437 49.2004 81.7799 49.2268C81.8161 49.2531 81.8574 49.2689 81.9039 49.2689H82.9941C83.2886 49.2689 83.516 49.2057 83.6865 49.0845C83.8518 48.9632 83.9397 48.8104 83.9397 48.6364H88.1094V49.0528C88.1094 49.1003 88.1301 49.1319 88.1662 49.1635C88.2024 49.1899 88.2437 49.2057 88.2902 49.2057H89.4115C89.7163 49.2057 89.9488 49.1213 90.1142 48.9474C90.2743 48.7735 90.357 48.5204 90.357 48.1726V41.3254C90.357 41.2674 90.3415 41.2305 90.3157 41.1989C90.2898 41.1726 90.2537 41.1567 90.2123 41.1567H87.3757C87.3137 41.1567 87.2568 41.1778 87.2155 41.2147C87.1742 41.2516 87.1483 41.3096 87.1483 41.3887C87.1483 41.5679 87.3085 41.7313 87.6289 41.8894C87.9492 42.0423 88.1094 42.3006 88.1094 42.6537V43.6183H83.9552V41.6101L83.9603 41.6153ZM79.6305 52.3683C79.5116 52.3683 79.4341 52.3894 79.3928 52.4369C79.3566 52.4843 79.3359 52.5686 79.3359 52.7004C79.3359 52.8691 79.5168 53.1063 79.8733 53.4173C80.2298 53.7283 80.545 53.8811 80.8189 53.8811H91.6642C92.1758 53.8811 92.429 53.6281 92.429 53.1274C92.429 52.6266 92.1706 52.3736 91.6642 52.3736H87.3499V49.796C87.3499 49.7433 87.3344 49.7012 87.3085 49.6695C87.2827 49.6432 87.2413 49.6274 87.1845 49.6274H84.1877C84.1102 49.6274 84.0379 49.6432 83.9603 49.6801C83.8828 49.7117 83.8467 49.7908 83.8467 49.912C83.8467 50.1229 84.0223 50.2968 84.3737 50.4286C84.725 50.5604 84.9059 50.8503 84.9059 51.293V52.3736H79.6305V52.3683Z" fill="#005BAC"/>
<path d="M101.218 53.823H98.1747V51.314H101.218V53.823ZM95.9581 55.5309C95.9581 55.573 95.9736 55.6152 96.0046 55.6468C96.0356 55.6785 96.0769 55.6943 96.1183 55.6943H97.0483C97.3066 55.6943 97.5288 55.6363 97.7148 55.5256C97.9008 55.4149 98.0249 55.3042 98.092 55.1935H103.419C103.801 55.1935 103.993 54.988 103.998 54.5768C103.998 54.1657 103.75 53.881 103.243 53.7123L103.698 50.8027C103.739 50.5392 103.693 50.323 103.548 50.1649C103.409 50.0068 103.233 49.9224 103.026 49.9224H95.1934C95.0745 49.9224 94.9712 49.9383 94.8937 49.9699C94.811 50.0015 94.7697 50.0806 94.7697 50.2018C94.7697 50.4443 94.9712 50.6235 95.3639 50.7395C95.7617 50.8554 95.9581 51.1242 95.9581 51.5459V55.5151V55.5309ZM95.8754 45.0467C96.0717 44.6724 96.3663 44.4827 96.7538 44.4827C97.1413 44.4827 97.4462 44.6724 97.6322 45.0572C97.8182 45.442 97.9112 45.8426 97.9112 46.2643C97.9112 46.686 97.813 47.0655 97.6167 47.445C97.4203 47.8245 97.1258 48.009 96.7383 48.009C96.3508 48.009 96.0407 47.8193 95.8599 47.4345C95.6739 47.055 95.5809 46.6491 95.5809 46.2274C95.5809 45.8057 95.6791 45.4262 95.8754 45.0467ZM93.8086 44.8622C93.571 45.2733 93.4521 45.7319 93.4521 46.2432C93.4521 47.1288 93.7828 47.8509 94.4442 48.4096C95.1055 48.9684 95.8754 49.2477 96.759 49.2477C97.5753 49.2477 98.2935 49.0105 98.9239 48.5309C99.5543 48.0565 99.916 47.4292 100.014 46.6544H101.657V49.0633C101.657 49.1054 101.673 49.1476 101.699 49.1792C101.724 49.2108 101.761 49.2267 101.807 49.2267H102.592C102.897 49.2267 103.176 49.1792 103.44 49.0791C103.698 48.9789 103.827 48.6416 103.827 48.067V40.7402C103.827 40.6875 103.812 40.6453 103.786 40.6137C103.76 40.5873 103.719 40.5715 103.662 40.5715H100.846C100.717 40.5715 100.608 40.5873 100.52 40.6137C100.433 40.6401 100.391 40.7139 100.391 40.8404C100.391 41.1303 100.603 41.3148 101.027 41.4044C101.451 41.494 101.662 41.8155 101.662 42.369V45.1626H99.8229C99.7144 44.8991 99.5646 44.6514 99.3734 44.43C99.1822 44.2086 98.9704 44.0136 98.7327 43.8501H100.2C100.644 43.8501 100.867 43.6077 100.867 43.128C100.867 42.6483 100.644 42.4059 100.2 42.4059H97.937V40.8773C97.937 40.8193 97.9215 40.7824 97.8957 40.7507C97.8698 40.7244 97.8285 40.7086 97.7717 40.7086H95.1159C95.0074 40.7086 94.9247 40.7244 94.8627 40.756C94.8059 40.7876 94.7748 40.8562 94.7748 40.9563C94.7748 41.1672 94.9454 41.3306 95.2812 41.4518C95.6171 41.573 95.7876 41.805 95.7876 42.1476V42.3953H92.7546C92.6771 42.3953 92.5944 42.4059 92.4962 42.427C92.3981 42.448 92.3516 42.5218 92.3516 42.6431C92.3516 42.9066 92.5479 43.1755 92.9354 43.439C93.3281 43.7026 93.633 43.8396 93.85 43.8396H94.7593C94.3667 44.1032 94.0515 44.4458 93.8138 44.8517L93.8086 44.8622Z" fill="#005BAC"/>
<path d="M96.2438 12.8144C95.4016 12.4875 94.5181 12.2872 93.6656 12.0079C93.1695 11.8445 92.6683 11.6811 92.162 11.5282C92.1361 11.3859 92.1155 11.2383 92.0896 11.1013C91.9553 10.3475 91.8468 9.58845 91.7228 8.83469C91.5988 8.06511 91.4644 7.29026 91.2888 6.53122C91.1596 5.97249 91.0201 5.37685 90.7411 4.88137C90.6119 4.65999 90.4259 4.44387 90.1624 4.51767C89.8782 4.59673 89.6302 4.90773 89.4338 5.12384C89.2117 5.37158 88.9998 5.64041 88.8138 5.91978C88.3436 6.62083 87.8734 7.34824 87.3516 8.03348C90.3484 10.0576 92.565 13.2624 93.3865 17.0576C93.4692 17.0154 93.5467 16.9732 93.6242 16.9363C94.5646 16.4303 95.4688 15.8505 96.4402 15.4183C96.7864 15.2654 97.1377 15.102 97.4426 14.8701C97.6596 14.7119 97.8353 14.5116 97.8353 14.2217C97.8456 13.3994 96.8484 13.0463 96.2438 12.8091V12.8144Z" fill="#005BAC"/>
<path d="M91.2407 11.977C90.197 10.4115 88.8743 9.07265 87.3449 8.03952C86.8695 8.66678 86.3528 9.25187 85.7586 9.74208C84.8957 9.51015 84.038 9.26241 83.1907 8.98304C82.6946 8.81437 82.1883 8.65624 81.7181 8.4085C81.3667 8.22401 81.0102 8.04479 80.6434 7.90247C80.3178 7.77597 79.9303 7.65473 79.5841 7.76015C79.2741 7.85503 79.1398 8.20292 79.1759 8.49811C79.5325 11.919 81.6923 15.9145 81.6923 15.9145C81.0929 16.7684 80.4263 17.5644 79.8218 18.4183C79.4756 18.9085 79.1708 19.4198 78.9279 19.9733C78.8143 20.2315 78.7626 20.5583 78.8453 20.8324C79.0261 21.4386 80.0337 21.2594 80.4625 21.2067C81.8008 21.0433 83.1287 20.7323 84.4514 20.4529C84.6942 20.4002 84.9371 20.3475 85.1799 20.2948C85.1799 20.2948 87.1899 22.5824 89.577 23.6367C89.577 23.6367 90.7137 24.1954 91.2201 23.9529C91.6334 23.7526 91.5508 23.0463 91.6231 22.5824C91.7006 22.0659 91.7368 21.5388 91.7936 21.0222C91.8659 20.416 91.9486 19.8151 92.0003 19.2089C92.0468 18.7029 92.0933 18.1969 92.1811 17.6961C92.5841 17.4958 92.982 17.285 93.3798 17.0742C92.9768 15.2135 92.238 13.4951 91.2407 11.9876V11.977Z" fill="url(#paint0_radial_6273_160602)"/>
<path d="M79.1197 13.9155C77.0788 10.4366 76.8152 7.05253 77.0219 6.08792C77.1873 5.3816 77.4973 5.19711 77.4973 5.19711C77.8435 4.99154 78.4015 5.03898 79.1145 5.33943C79.1145 5.33943 83.5633 7.31609 83.5994 7.32136C83.7131 7.37407 84.2505 7.59545 84.9222 7.59018C85.9349 7.58491 86.6376 7.31081 87.2318 6.09847C88.4098 3.67377 90.7143 1.0066 91.8614 1.17C92.5589 1.27015 92.7191 2.65645 92.7191 4.38536C92.7191 5.09169 92.6932 5.85072 92.6674 6.60976C92.6674 6.60976 92.6261 7.80103 92.6261 7.83792C92.5951 8.94485 92.8224 10.3522 95.8967 11.2799C96.8888 11.5804 98.0255 11.9494 98.8884 12.3816C100.004 12.9351 100.221 13.3673 100.258 13.5729C100.258 13.5939 100.258 13.6203 100.258 13.6467C100.258 14.0262 99.9631 14.8379 99.0227 15.0909C99.0227 15.0909 98.5887 15.1805 98.5629 15.3598C98.5629 15.3598 98.506 15.5864 98.9504 15.7551C99.9011 16.0397 100.743 15.1489 100.743 15.1489C101.26 14.5691 101.477 13.9893 101.384 13.3989C101.141 11.7807 98.6972 10.9162 96.2171 10.1625C93.7111 9.40344 93.7473 8.40193 93.7731 7.82738V7.83792L93.8145 6.65193C93.8713 5.05479 93.923 3.54199 93.7628 2.40871C93.6905 1.86578 93.4579 0.215935 92.0267 0.0156335C91.0708 -0.121415 89.9496 0.521658 88.694 1.9185C87.7846 2.93054 86.8339 4.33265 86.2191 5.57663C85.9401 6.13536 85.6972 6.40946 84.9583 6.42527C84.4881 6.43581 84.08 6.26187 84.0645 6.25133C83.0879 5.77166 81.1865 4.9441 79.7604 4.33265L79.5744 4.25359C78.4738 3.78973 77.5748 3.76865 76.8928 4.19033C76.066 4.70163 75.8904 5.90344 75.8904 5.90344C75.632 7.14214 76.2624 10.679 78.448 14.4057C78.448 14.4057 78.7012 14.8221 79.0319 14.664C79.4814 14.4531 79.1249 13.9155 79.1249 13.9155H79.1197Z" fill="#005BAC"/>
<path d="M72.5946 11.9913C72.2742 11.8384 72.2122 11.8648 72.2122 11.8648C71.9797 11.8648 71.8247 12.0703 71.866 12.3286C71.8764 12.3919 71.897 12.4551 71.928 12.5131C71.928 12.5131 72.0159 12.6554 72.1089 12.7661C72.2019 12.8768 72.8891 13.5304 73.4213 14.9694C73.9483 16.4084 73.783 17.7789 73.783 17.7789C73.7365 18.053 73.7623 18.1637 73.7623 18.1637C73.8295 18.5801 74.1912 18.9175 74.5684 18.9175C74.899 18.9175 75.1315 18.6592 75.1419 18.3166C75.1419 18.3166 75.2452 16.6615 74.9352 15.428C74.2738 12.8241 72.5946 11.9965 72.5946 11.9965V11.9913Z" fill="#ED6D00"/>
<path d="M86.439 23.7405C86.439 23.7405 86.4752 23.7563 86.501 23.7563C86.5837 23.7563 86.656 23.6561 86.656 23.5349C86.656 23.4664 86.6353 23.4084 86.5992 23.3662C86.5992 23.3662 85.7621 21.7796 83.5765 21.7111C81.4477 21.6478 80.2593 23.4558 80.2593 23.4558C80.1767 23.5771 80.1302 23.7405 80.125 23.9197C80.125 24.2887 80.3265 24.5891 80.5849 24.5891C80.7192 24.5891 80.8432 24.5048 80.931 24.373C80.931 24.373 82.0368 23.0183 83.6178 23.0183C85.2144 23.0183 86.439 23.7299 86.439 23.7299V23.7405Z" fill="#ED6D00"/>
<path d="M84.2608 34.3511C84.2866 34.1772 84.1471 34.0876 84.0076 34.0981C83.8836 34.1034 83.7596 34.2141 83.7596 34.2141C80.2822 37.2028 75.2135 35.1734 75.2135 35.1734C74.4746 34.8993 72.5267 34.0665 70.5426 32.306C69.4213 31.2728 66.812 28.516 66.8689 25.3112C66.8224 24.0883 67.2409 22.9709 68.0573 22.1538C68.8736 21.3368 70.0052 20.8941 71.0076 20.9995H71.0127C72.0306 21.0258 72.9917 21.263 73.8649 21.7005L74.0354 21.7743C75.1308 22.2593 76.004 22.9867 76.5465 23.5138C77.4766 24.2728 78.4945 25.9016 78.541 27.4249C78.5668 28.2525 78.3033 28.9325 77.7556 29.4543C77.1459 29.9814 76.2468 30.129 75.2238 29.8602C73.7254 29.4648 72.258 28.2736 71.8033 27.0876C71.3641 25.9543 71.6483 25.385 71.9686 25.1056C72.5112 24.6313 73.4205 24.7314 73.8081 25.0055H73.8184L73.8287 25.016C74.9086 25.4641 75.5596 26.3865 75.6268 27.0296V27.0981C75.6423 27.3722 75.539 27.5725 75.3426 27.6832H75.3375L75.3323 27.6938C75.0171 27.9678 74.3247 27.8519 73.8391 27.6094C73.529 27.4566 73.2914 27.251 73.1364 27.0032V27.0138C73.1105 26.9453 73.0278 26.8925 72.9348 26.94C72.847 26.9874 72.8367 27.0876 72.8677 27.1614C72.9865 27.4829 73.188 27.7834 73.4205 27.9889C73.8184 28.4159 74.6554 29.0642 75.7922 28.6373C76.3088 28.4633 76.5672 28.0364 76.6912 27.7096C76.8255 27.3564 76.872 26.9453 76.8307 26.5605C76.8049 26.2916 76.7325 26.0281 76.6189 25.812C76.2313 24.8843 75.4821 24.1516 74.3971 23.6297L74.2937 23.5928C73.7047 23.3662 72.816 23.0236 71.5863 23.5665C71.0127 23.8248 70.5632 24.373 70.3204 25.1109C70.0362 25.9859 70.1085 26.9822 70.496 27.7096C71.0592 29.059 72.1753 30.1501 73.8081 30.946C74.4849 31.2675 76.8307 32.19 78.6856 30.5928C79.6312 29.7337 80.1065 28.3368 79.9515 26.8662C79.9102 26.455 79.8224 26.0703 79.688 25.7171C79.2023 24.2201 78.2723 23.1606 77.5231 22.4069C76.6189 21.5319 75.6475 20.8624 74.6348 20.4038L74.4126 20.309C74.0354 20.1245 72.8883 19.5552 71.0489 19.4919C69.5195 19.513 68.2536 19.9663 67.2874 20.8308C66.1403 21.7743 65.4325 23.4927 65.4376 25.3112C65.4221 28.1207 66.8275 30.8669 69.6073 33.4603C71.6276 35.2578 74.0509 36.1169 75.0843 36.4806C75.0843 36.4806 79.9205 38.141 84.0799 34.6147C84.0799 34.6147 84.2246 34.4882 84.2504 34.3459L84.2608 34.3511Z" fill="#ED6D00"/>
<path d="M76.5269 19.8087C77.2141 20.2198 77.4156 19.5767 77.4156 19.5767C77.9323 17.7635 80.1954 16.4035 80.1954 16.4035C80.5726 16.1927 80.5261 15.7183 80.3091 15.4811C79.9267 15.0541 79.4152 15.3862 79.4152 15.3862C77.0281 16.7989 76.4442 19.0707 76.4442 19.0707C76.4442 19.0707 76.2272 19.6294 76.5217 19.8034L76.5269 19.8087Z" fill="#ED6D00"/>
<path d="M103.62 23.8675C103.62 23.8675 103.62 23.8675 103.62 23.8623C103.583 23.6356 102.767 18.2644 100.132 16.6461C99.2741 16.119 98.3389 16.0294 97.3313 16.3879C95.5178 17.0309 94.35 18.6175 93.6008 20.3148C95.2077 22.3547 96.1791 25.0483 96.1791 28.0001C96.1791 30.43 95.5229 32.6808 94.3965 34.5415C96.2411 34.7101 98.3337 34.6416 100.633 34.1672C100.633 34.1672 102.447 30.4933 102.643 26.0919C102.669 26.5927 102.684 27.1672 102.684 27.7945C102.684 29.6868 102.534 32.0746 102.002 34.4466C102.002 34.4571 102.002 34.4677 101.997 34.4782C101.976 34.5678 101.78 35.4165 100.752 35.6062C99.3775 35.8645 95.2129 35.8013 88.2841 33.9669C88.2841 33.9669 77.449 30.9361 83.0448 25.3909C83.0448 25.3909 83.5666 24.9059 83.5821 24.8796C83.5976 24.8532 83.6235 24.8216 83.5925 24.7742C83.5615 24.7267 83.4943 24.7478 83.4943 24.7478C83.3806 24.7794 82.8071 25.2117 82.8071 25.2117C79.7018 27.5046 81.1795 30.5249 81.1795 30.5249C82.7296 33.8984 89.2709 35.427 89.2709 35.427C95.6366 36.9873 99.579 37.0136 100.948 36.7553C102.72 36.4285 103.077 34.8999 103.118 34.6943C103.682 32.2064 103.837 29.7342 103.837 27.7839C103.837 25.5385 103.63 23.9782 103.62 23.8623V23.8675ZM95.7399 19.308C95.5746 19.4082 95.4093 19.5136 95.2542 19.6296C95.8588 18.665 96.6545 17.8638 97.7034 17.4895C98.3802 17.2523 98.9744 17.305 99.5376 17.6476C100.235 18.0799 100.809 18.9285 101.248 19.8931C99.8993 18.3487 97.6517 18.2117 95.7348 19.3133L95.7399 19.308Z" fill="#6FBA2C"/>
<path d="M93.594 20.3093C92.8603 21.9697 92.5245 23.7355 92.3798 24.8372C92.3591 24.9953 92.3436 25.1376 92.3281 25.2641C92.3281 25.2641 92.2765 25.5804 92.1835 25.728C92.0698 25.9178 91.9251 26.0337 91.7184 26.0495C91.2638 26.0812 90.8349 25.4697 90.8349 25.4697C90.1064 24.6369 89.042 24.1098 87.8587 24.1098C85.6576 24.1098 83.875 25.9283 83.875 28.1738C83.875 28.1738 83.8079 31.2679 88.8095 33.1813C89.4347 33.4396 90.1322 33.6873 90.9021 33.8982C91.9406 34.1934 93.1032 34.42 94.3846 34.536C95.511 32.6806 96.1672 30.4245 96.1672 27.9946C96.1672 25.0375 95.1906 22.344 93.5889 20.3093H93.594Z" fill="url(#paint1_radial_6273_160602)"/>
<defs>
<radialGradient id="paint0_radial_6273_160602" cx="0" cy="0" r="1" gradientUnits="userSpaceOnUse" gradientTransform="translate(85.0714 20.7534) scale(7.50755 7.65888)">
<stop stop-color="#7ECEF4"/>
<stop offset="0.37" stop-color="#7ECEF4"/>
<stop offset="0.77" stop-color="#6FC1ED"/>
<stop offset="1" stop-color="#5FB4E6"/>
</radialGradient>
<radialGradient id="paint1_radial_6273_160602" cx="0" cy="0" r="1" gradientUnits="userSpaceOnUse" gradientTransform="translate(89.662 30.6934) scale(6.31399 6.44127)">
<stop stop-color="#EFEC65"/>
<stop offset="0.44" stop-color="#CADB4D"/>
<stop offset="1" stop-color="#9FCA3A"/>
</radialGradient>
</defs>
</svg>
