<svg width="144" height="48" viewBox="0 0 144 48" fill="none" xmlns="http://www.w3.org/2000/svg">
<g clip-path="url(#clip0_6273_53933)">
<path d="M28.7531 45.8046C27.1408 45.8046 25.862 45.7048 25.1691 45.5084C24.4861 45.3216 24.1331 44.9932 24.1331 44.5488V41.5765H21.5463V44.5488C21.5463 44.9803 21.6046 46.001 22.4917 46.6032C23.4177 47.2537 27.0955 47.4534 28.6689 47.4534H28.7531C30.2457 47.4534 33.0202 47.1667 34.4091 46.8254V45.1831C33.7583 45.3313 31.4759 45.8046 28.7531 45.8046ZM34.2537 30H31.667V42.4105H34.2537V30ZM29.1028 38.0956V30.3736H19.7656V38.0956C19.7656 38.7815 20.3258 39.3385 21.0187 39.3418H27.8499C28.5427 39.3418 29.1028 38.7846 29.1028 38.0956ZM26.516 37.7381H22.3525V31.9804H26.516V37.7381Z" fill="#8B8B82"/>
<path d="M16.2493 38.2355V36.6318H0V38.2355H6.9996V40.7246H1.59935V42.3283H12.0534V47.149H14.6402V41.9676C14.6402 41.2818 14.0801 40.7279 13.3906 40.7279H9.5864V38.2387H16.2493V38.2355ZM12.0955 33.9751C12.0955 35.0765 11.8818 36.2776 11.7588 36.6222L14.1449 36.6318C14.5884 35.8525 14.6791 34.4196 14.6856 33.9751V33.9332V31.6212C14.6856 30.932 14.1254 30.375 13.4326 30.375H1.66734V31.9787H12.0988V33.9751H12.0955Z" fill="#8B8B82"/>
<path d="M79.02 39.0599C79.02 39.0599 79.0038 39.0534 78.9941 39.0534C79.0038 39.0534 79.0103 39.0599 79.02 39.0599ZM83.0249 44.5889V40.8535H83.0411L83.1641 40.847C84.2519 40.7858 85.1843 40.6474 86.2139 40.4252C86.2526 40.4155 86.298 40.4027 86.3466 40.393C87.716 40.0903 87.8488 39.2273 87.865 38.7024V30.375H85.2782V33.6178H78.162V30.375H75.5753V38.7024C75.585 39.2144 75.721 40.042 76.9804 40.364C78.1426 40.6152 79.1851 40.773 80.2956 40.8406L80.4348 40.8503V44.5889H73.5V46.1958H89.9402V44.5889H83.0249ZM79.0394 39.0823H79.033C78.4016 38.96 78.1588 38.5318 78.1588 38.1517C78.1588 38.1421 78.1588 38.1356 78.1588 38.1259V35.2182H85.275V38.1259V38.1485C85.275 38.5285 85.0321 38.96 84.3911 39.0823C83.8246 39.1758 82.9244 39.2788 81.7169 39.2788C80.5093 39.2788 79.6027 39.1758 79.0362 39.0823H79.0394Z" fill="#8B8B82"/>
<path d="M46.287 35.616H49.6993V42.4105H52.2862V30H49.6993V34.0123H46.6269C46.6463 33.8126 46.6625 33.6098 46.669 33.3973V33.2556H46.6787V31.623C46.6787 30.9338 46.1187 30.3768 45.4258 30.3768H38.1057V31.9804H44.0854V33.1043C44.0854 34.6822 43.5383 36.0314 42.4957 36.9781C41.476 37.9056 39.9187 38.4433 38.0312 38.4691V40.0727C38.86 40.0727 40.9288 40.0212 42.7807 39.2322C44.257 38.6011 45.6363 37.5223 46.287 35.616ZM46.7855 45.8046C45.1765 45.8046 43.8944 45.7048 43.2016 45.5084C42.5184 45.3216 42.1656 44.9932 42.1656 44.5488V41.5765H39.5788V44.5488C39.5788 44.9803 39.637 46.001 40.5241 46.6032C41.45 47.2537 45.1279 47.4534 46.7014 47.4534H46.7855C48.278 47.4534 51.0527 47.1667 52.4416 46.8254V45.1831C51.7908 45.3313 49.5083 45.8046 46.7855 45.8046Z" fill="#8B8B82"/>
<path d="M93.7928 45.2654C93.8057 45.7871 93.9417 46.6404 95.2787 46.9464C96.8619 47.2909 98.5423 47.4487 100.21 47.4487C101.961 47.4487 103.211 47.3102 104.609 47.0107C104.664 46.9914 104.726 46.9721 104.8 46.956C106.17 46.6534 106.306 45.7936 106.316 45.2654V41.0276H93.7928V45.2654ZM96.3827 44.6954V42.6313H103.729V44.6954C103.729 44.6954 103.729 44.7148 103.729 44.7245C103.729 45.1172 103.47 45.5648 102.783 45.6679C102.777 45.6679 102.767 45.6712 102.758 45.6744C102.204 45.7613 101.323 45.8483 100.206 45.8483C99.0893 45.8483 97.885 45.7549 97.3313 45.6679C96.6418 45.5648 96.3795 45.1172 96.3795 44.7245C96.3795 44.7148 96.3795 44.7052 96.3795 44.6954H96.3827ZM103.729 30.0018V34.7096H101.715C101.508 33.9916 101.084 33.3475 100.485 32.8387H101.993V31.235H98.212V29.625H95.6252V31.235H91.8438V32.8387H93.3848C92.5204 33.5761 92.0186 34.597 92.0186 35.7208C92.0186 37.9717 94.0291 39.7975 96.9429 39.7975C99.6074 39.7975 101.495 38.2808 101.815 36.3133H103.732V39.6655H106.319V29.9986H103.732L103.729 30.0018ZM96.9397 38.1424C95.6025 38.1424 94.6087 37.0604 94.6087 35.7208C94.6087 34.3812 95.5928 33.2993 96.9397 33.2993C98.2864 33.2993 99.2707 34.3844 99.2707 35.7208C99.2707 37.0572 98.2864 38.1424 96.9397 38.1424Z" fill="#8B8B82"/>
<path d="M64.466 33.2491V33.1043H64.4757V31.6198C64.4757 30.9306 63.9155 30.3736 63.2226 30.3736H55.8994V31.9772H61.8791V32.953C61.8791 32.953 61.8791 32.9593 61.8791 32.9626C61.8791 34.5372 61.3319 35.8157 60.2862 36.6916C59.2664 37.5449 57.7124 38.0086 55.8281 38.0311V39.6348C55.9122 39.6348 56.0062 39.6348 56.1098 39.6348H56.126C57.1588 39.6348 59.2566 39.5671 61.0373 38.7428C62.8212 37.9087 64.3623 36.3438 64.4692 33.2524L64.466 33.2491ZM69.7108 33.2072V30H67.124V39.667H69.7108V34.8109H72.0062V33.2072H69.7108ZM63.8993 39.9374C60.2992 39.9374 57.858 41.7408 57.858 43.9692C57.858 46.1975 60.2182 48.0008 63.8993 48.0008C67.5804 48.0008 69.9406 46.1975 69.9406 43.9692C69.9406 41.7408 67.506 39.9374 63.8993 39.9374ZM63.8993 46.3392C61.9374 46.3392 60.6197 45.2765 60.6197 43.966C60.6197 42.6553 61.9148 41.5926 63.8993 41.5926C65.884 41.5926 67.179 42.6553 67.179 43.966C67.179 45.2765 65.9292 46.3392 63.8993 46.3392Z" fill="#8B8B82"/>
<path d="M124.718 0.000717777C115.507 0.0812222 107.918 6.78241 107.993 15.4254C108.031 19.7372 110.262 24.1457 114.248 27.0534L113.212 32.0254C132.643 37.6027 141.783 23.5531 141.709 15.1678C141.635 6.62141 134.094 -0.0797867 124.718 0.000717777ZM126.023 23.7496L125.981 22.0139C119.191 21.9946 116.219 17.7697 116.19 14.3401C116.167 11.7093 117.984 8.92384 120.998 8.89807C123.54 8.87554 124.812 10.872 124.812 10.872C124.812 10.872 125.877 8.84011 128.694 8.81758C130.704 8.80147 133.407 10.4792 133.443 14.3724C133.476 18.0305 130.82 22.0428 126.023 23.7463V23.7496Z" fill="#EF413D"/>
<path d="M126.183 30.3758L126.025 23.7487C123.095 24.7889 119.362 24.9692 114.952 23.6812L114.25 27.0527C117.28 29.2649 121.325 30.6077 126.183 30.3758Z" fill="#851013"/>
<path d="M14.7277 22.4431C14.7277 21.8151 14.2162 21.3096 13.5881 21.3096C12.9568 21.3096 12.4486 21.8184 12.4453 22.4431C12.4453 23.0678 12.9568 23.5766 13.5881 23.5766C14.2194 23.5766 14.7277 23.0678 14.7277 22.4431Z" fill="#EF413D"/>
<path d="M10.318 21.2146C10.3083 20.2775 9.91659 19.45 8.29458 19.4403C6.67903 19.4403 5.34516 20.4481 4.70736 21.205L5.56208 16.935V16.9446C5.59446 16.7707 5.61711 16.6162 5.61711 16.4874C5.60417 16.1364 5.49409 15.9689 4.88543 15.9561C4.05661 15.9657 3.82675 16.2555 3.70373 16.8222L1.66406 27.0205H3.54509L4.1505 23.9935C4.17965 23.9067 4.20878 23.7747 4.2444 23.5975C4.37066 23.034 6.02181 20.7541 7.51757 20.7348C7.51757 20.7348 7.53052 20.7348 7.53698 20.7348C8.20392 20.7348 8.38847 21.1953 8.38523 21.6171C8.38523 21.8007 8.35609 21.9874 8.32695 22.1388L7.35893 27.0238H9.2367L10.2371 21.9874C10.2857 21.7362 10.318 21.4722 10.318 21.2211V21.2146Z" fill="#EF413D"/>
<path d="M27.5314 19.439H27.5184C26.7996 19.4454 26.5148 19.6869 26.382 19.9671L23.9765 25.1194L23.4941 19.9284C23.4489 19.5227 23.2805 19.4648 23.0992 19.439H22.688C21.9563 19.439 21.7199 19.819 21.6455 19.9768L19.2465 25.1194L18.79 20.1861C18.709 19.5162 18.5957 19.4583 17.9385 19.439C17.2101 19.4519 17.0676 19.7159 17.0547 20.17C17.0547 20.2343 17.0547 20.2988 17.0644 20.3696L17.7377 27.0161H19.6706L21.9855 22.2374L22.4711 27.0161H24.404L27.9263 19.7385L27.9555 19.6773C27.9717 19.6451 27.9814 19.6096 27.9814 19.5839C27.9814 19.5356 27.9522 19.4454 27.5379 19.439H27.5314Z" fill="#EF413D"/>
<path d="M30.2647 23.7299L30.3327 23.7364C30.3327 23.7364 30.7276 23.7685 31.2846 23.7685C32.2234 23.7685 33.6221 23.6719 34.3182 23.2018C35.1663 22.6319 35.4933 21.9556 35.4966 21.2279C35.4966 21.1667 35.4966 21.1055 35.4901 21.0475C35.4319 20.2747 34.6969 19.4471 32.8451 19.4438C30.7536 19.4471 28.7981 20.5999 28.4355 23.1761C28.3869 23.5045 28.3643 23.8169 28.3675 24.1034C28.3772 26.0323 29.3712 27.0178 31.4238 27.1304C31.55 27.1369 31.673 27.1402 31.7897 27.1402C32.1457 27.1402 32.45 27.1144 32.7188 27.0692L32.7965 27.0564C33.1559 26.992 33.4343 26.8954 33.648 26.7955C34.208 26.5541 34.5609 26.2448 34.6775 26.1354L33.9037 25.2434C33.5605 25.5107 33.1202 25.675 32.8418 25.7555C32.6216 25.807 32.3691 25.8391 32.0583 25.8391C31.9548 25.8391 31.8446 25.8359 31.7281 25.8295C30.9349 25.7844 30.2355 25.3207 30.242 24.155C30.242 24.0422 30.2485 23.9232 30.2614 23.7976L30.2679 23.7331L30.2647 23.7299ZM30.4298 22.7124C30.4298 22.7124 30.7439 20.6353 32.6443 20.5548C32.6735 20.5548 32.7026 20.5548 32.7318 20.5548C33.1721 20.5548 33.4537 20.6868 33.6188 20.8672C33.7872 21.0475 33.8358 21.2665 33.8358 21.4339C33.8358 21.4565 33.8358 21.4758 33.8358 21.4951C33.8034 22.0168 33.5153 22.809 31.1776 22.809H31.1162C30.9219 22.809 30.7147 22.8025 30.4914 22.7928H30.4169L30.4266 22.7155L30.4298 22.7124Z" fill="#EF413D"/>
<path d="M36.5292 25.4641L36.5227 25.5155C36.5097 25.6121 36.5 25.7087 36.5 25.8021C36.5 26.3045 36.7008 26.7715 37.2674 27.0259C37.481 27.1192 37.7628 27.1804 38.1026 27.1804C38.5495 27.1804 39.0901 27.0709 39.6922 26.7843L39.4462 25.7957C39.2941 25.8826 38.9606 26.0565 38.6822 26.0597C38.5753 26.0597 38.4717 26.0341 38.3941 25.9535C38.3163 25.8763 38.2742 25.7571 38.2774 25.5961C38.2774 25.5155 38.2872 25.4189 38.3098 25.3127L39.8671 17.0529C39.8671 17.0529 39.8671 17.0433 39.8671 17.0368C39.8671 17.0079 39.8671 16.9756 39.8768 16.9435C39.9092 16.7696 39.9319 16.615 39.9286 16.4829C39.9157 16.1288 39.8121 15.9645 39.2487 15.9517C38.5592 15.958 38.3196 16.1931 38.1901 16.6375L36.5324 25.4576L36.5292 25.4641Z" fill="#EF413D"/>
<path d="M41.1027 25.4383L41.093 25.5155C41.08 25.6121 41.0703 25.7087 41.0703 25.8053C41.0703 26.3078 41.2711 26.7747 41.8377 27.0259C42.0513 27.1192 42.333 27.1804 42.6729 27.1804C43.1164 27.1804 43.6604 27.0709 44.2658 26.7843L44.0166 25.7957C43.8676 25.8826 43.5342 26.0565 43.2525 26.0597C43.1456 26.0597 43.0388 26.0341 42.9643 25.9535C42.8866 25.8763 42.8445 25.7571 42.8445 25.5961C42.8445 25.5123 42.8542 25.4189 42.8769 25.3127L44.4342 17.0497C44.4342 17.0175 44.4342 16.9853 44.4439 16.9435C44.4763 16.7696 44.499 16.615 44.499 16.4829C44.486 16.1288 44.3823 15.9645 43.819 15.9517C43.1294 15.958 42.8931 16.1931 42.7604 16.6375L41.106 25.4318L41.1027 25.4383Z" fill="#EF413D"/>
</g>
<defs>
<clipPath id="clip0_6273_53933">
<rect width="144" height="48" fill="white"/>
</clipPath>
</defs>
</svg>
