<svg width="24" height="24" viewBox="0 0 24 24" fill="none" xmlns="http://www.w3.org/2000/svg">
<path d="M0 4C0 1.79086 1.79086 0 4 0H20C22.2091 0 24 1.79086 24 4V20C24 22.2091 22.2091 24 20 24H4C1.79086 24 0 22.2091 0 20V4Z" fill="#FA0F00"/>
<path d="M19.1386 13.8424C18.0242 12.6853 14.9814 13.1567 14.2529 13.2424C13.1815 12.2138 12.453 10.971 12.1958 10.5424C12.5815 9.38527 12.8385 8.22812 12.8815 6.98537C12.8815 5.9139 12.4529 4.75684 11.2529 4.75684C10.8243 4.75684 10.4385 5.0139 10.2242 5.35674C9.71001 6.25684 9.92423 8.05684 10.7385 9.89968C10.2672 11.2282 9.83854 12.5139 8.63854 14.7854C7.3957 15.2995 4.78139 16.4996 4.56707 17.7854C4.48139 18.171 4.60992 18.5568 4.90992 18.8567C5.20992 19.1139 5.59561 19.2424 5.98139 19.2424C7.56707 19.2424 9.10992 17.0568 10.1814 15.2138C11.0814 14.9139 12.4957 14.4853 13.91 14.2281C15.5814 15.6853 17.0385 15.8995 17.81 15.8995C18.8385 15.8995 19.2243 15.471 19.3529 15.0852C19.5671 14.6567 19.4385 14.1853 19.1386 13.8424ZM18.0671 14.5711C18.0242 14.8711 17.6386 15.171 16.9529 14.9996C16.1385 14.7854 15.41 14.3996 14.7672 13.8853C15.3243 13.7995 16.5671 13.671 17.4672 13.8424C17.81 13.9281 18.1529 14.1424 18.0671 14.5711ZM10.91 5.74243C10.9957 5.6139 11.1243 5.52821 11.2529 5.52821C11.6385 5.52821 11.7242 5.99959 11.7242 6.38537C11.6814 7.28546 11.5099 8.18537 11.21 9.04252C10.5671 7.32821 10.6957 6.12812 10.91 5.74243ZM10.8243 14.0567C11.1672 13.3711 11.6386 12.171 11.81 11.6566C12.1957 12.2994 12.8385 13.071 13.1815 13.4138C13.1815 13.4567 11.8529 13.7138 10.8243 14.0567ZM8.2957 15.7711C7.31001 17.3996 6.28139 18.4281 5.72423 18.4281C5.63854 18.4281 5.55276 18.3853 5.46707 18.3424C5.33845 18.2566 5.29561 18.1281 5.33845 17.9567C5.46707 17.3567 6.58139 16.5424 8.2957 15.7711Z" fill="white"/>
</svg>
