<svg width="129" height="128" viewBox="0 0 129 128" fill="none" xmlns="http://www.w3.org/2000/svg">
<path d="M63.4965 0.33378C28.5283 0.639397 -0.280832 26.0789 0.00206587 58.8901C0.149209 75.259 8.61749 91.9947 23.7473 103.033L19.8145 121.908C93.5813 143.081 128.281 89.7451 127.998 57.912C127.716 25.4677 99.0889 0.0281627 63.4965 0.33378ZM68.4484 90.4909L68.289 83.9018C42.5152 83.8284 31.2325 67.7898 31.1218 54.7701C31.0357 44.7827 37.9309 34.2084 49.3744 34.1106C59.023 34.025 63.8519 41.6043 63.8519 41.6043C63.8519 41.6043 67.8972 33.8905 78.589 33.805C86.2195 33.7439 96.4831 40.1129 96.6198 54.8926C96.7428 68.7797 86.6614 84.0116 68.4484 90.4786V90.4909Z" fill="#EF413D"/>
<path d="M69.0446 115.646L68.4433 90.4879C57.3187 94.4367 43.1492 95.1213 26.409 90.2314L23.7422 103.031C35.2463 111.429 50.5993 116.526 69.0446 115.646Z" fill="#851013"/>
</svg>
